<?xml version="1.0" encoding="utf-8" standalone="no"?>
<!DOCTYPE svg PUBLIC "-//W3C//DTD SVG 1.1//EN"
  "http://www.w3.org/Graphics/SVG/1.1/DTD/svg11.dtd">
<svg xmlns:xlink="http://www.w3.org/1999/xlink" width="879.922251pt" height="439.92pt" viewBox="0 0 879.922251 439.92" xmlns="http://www.w3.org/2000/svg" version="1.1">
 <metadata>
  <rdf:RDF xmlns:dc="http://purl.org/dc/elements/1.1/" xmlns:cc="http://creativecommons.org/ns#" xmlns:rdf="http://www.w3.org/1999/02/22-rdf-syntax-ns#">
   <cc:Work>
    <dc:type rdf:resource="http://purl.org/dc/dcmitype/StillImage"/>
    <dc:date>2026-06-15T20:43:58.636203</dc:date>
    <dc:format>image/svg+xml</dc:format>
    <dc:creator>
     <cc:Agent>
      <dc:title>Matplotlib v3.10.8, https://matplotlib.org/</dc:title>
     </cc:Agent>
    </dc:creator>
   </cc:Work>
  </rdf:RDF>
 </metadata>
 <defs>
  <style type="text/css">*{stroke-linejoin: round; stroke-linecap: butt}</style>
 </defs>
 <g id="figure_1">
  <g id="patch_1">
   <path d="M 0 439.92 
L 879.922251 439.92 
L 879.922251 -0 
L 0 -0 
z
" style="fill: #ffffff"/>
  </g>
  <g id="axes_1">
   <g id="patch_2">
    <path d="M 141.259551 141.146034 
C 123.441957 137.824592 105.032214 139.891206 88.394517 147.080481 
C 71.75682 154.269755 57.635229 166.260176 47.84325 181.511923 
C 38.051272 196.76367 33.026816 214.594665 33.415129 232.715036 
C 33.803441 250.835407 39.587156 268.434787 50.023523 283.253049 
C 53.308561 268.917108 59.692765 255.472688 68.72654 243.866587 
C 77.760314 232.260486 89.2265 222.771699 102.317611 216.068455 
C 104.072282 201.760481 108.375795 187.88182 115.02389 175.091205 
C 121.671984 162.30059 130.557789 150.803637 141.259551 141.146034 
" clip-path="url(#p26b5f29562)" style="fill: #d62728; opacity: 0.55"/>
   </g>
   <g id="patch_3">
    <path d="M 141.259551 141.146034 
C 162.199304 145.04949 181.122832 156.171339 194.720821 172.566611 
C 208.318809 188.961883 215.749527 209.615693 215.713503 230.916138 
C 232.013353 245.610046 243.075222 265.234072 247.20727 286.78685 
C 251.339318 308.339628 248.319572 330.663347 238.609882 350.343743 
C 257.323151 347.765093 275.172453 340.829448 290.717252 330.096552 
C 306.262052 319.363657 319.072604 305.130227 328.115028 288.54498 
C 337.157451 271.959733 342.181762 253.481176 342.782472 234.600631 
C 343.383182 215.720086 339.543683 196.959515 331.573845 179.833 
C 323.604006 162.706485 311.724159 147.687497 296.893071 135.988152 
C 282.061983 124.288807 264.689669 116.232539 246.178169 112.469534 
C 227.666669 108.706528 208.527744 109.340815 190.306011 114.321204 
C 172.084277 119.301593 155.283485 128.490399 141.259551 141.146034 
" clip-path="url(#p26b5f29562)" style="fill: #ff7f0e; opacity: 0.55"/>
   </g>
   <g id="patch_4">
    <path d="M 141.259551 141.146034 
C 130.557789 150.803637 121.671984 162.30059 115.02389 175.091205 
C 108.375795 187.88182 104.072282 201.760481 102.317611 216.068455 
C 120.494271 206.76118 141.077847 203.195636 161.325992 205.846861 
C 181.574136 208.498086 200.54584 217.242867 215.713503 230.916138 
C 215.749527 209.615693 208.318809 188.961883 194.720821 172.566611 
C 181.122832 156.171339 162.199304 145.04949 141.259551 141.146034 
" clip-path="url(#p26b5f29562)" style="fill: #ff7426; opacity: 0.55"/>
   </g>
   <g id="patch_5">
    <path d="M 50.023523 283.253049 
C 44.509035 307.318335 48.026843 332.590699 59.903939 354.235148 
C 71.781034 375.879598 91.2084 392.42181 114.469285 400.697005 
C 137.730169 408.9722 163.240143 408.416708 186.118757 399.136804 
C 208.997371 389.8569 227.686235 372.48469 238.609882 350.343743 
C 221.180436 352.745485 203.4348 351.307839 186.619262 346.131773 
C 169.803724 340.955707 154.321375 332.165297 141.259551 320.3779 
C 124.095353 323.57754 106.367937 321.779608 90.195667 315.19895 
C 74.023397 308.618292 60.077174 297.527904 50.023523 283.253049 
" clip-path="url(#p26b5f29562)" style="fill: #e377c2; opacity: 0.55"/>
   </g>
   <g id="patch_6">
    <path d="M 50.023523 283.253049 
C 60.077174 297.527904 74.023397 308.618292 90.195667 315.19895 
C 106.367937 321.779608 124.095353 323.57754 141.259551 320.3779 
C 126.872739 307.394793 115.821689 291.136133 109.04388 272.981169 
C 102.26607 254.826204 99.958736 235.303245 102.317611 216.068455 
C 89.2265 222.771699 77.760314 232.260486 68.72654 243.866587 
C 59.692765 255.472688 53.308561 268.917108 50.023523 283.253049 
" clip-path="url(#p26b5f29562)" style="fill: #ff6fa4; opacity: 0.55"/>
   </g>
   <g id="patch_7">
    <path d="M 215.713503 230.916138 
C 215.677569 252.163678 208.214154 272.74432 194.622299 289.075907 
C 181.030445 305.407495 162.147296 316.48414 141.259551 320.3779 
C 154.321375 332.165297 169.803724 340.955707 186.619262 346.131773 
C 203.4348 351.307839 221.180436 352.745485 238.609882 350.343743 
C 248.319572 330.663347 251.339318 308.339628 247.20727 286.78685 
C 243.075222 265.234072 232.013353 245.610046 215.713503 230.916138 
" clip-path="url(#p26b5f29562)" style="fill: #ffac92; opacity: 0.55"/>
   </g>
   <g id="patch_8">
    <path d="M 102.317611 216.068455 
C 99.958736 235.303245 102.26607 254.826204 109.04388 272.981169 
C 115.821689 291.136133 126.872739 307.394793 141.259551 320.3779 
C 162.147296 316.48414 181.030445 305.407495 194.622299 289.075907 
C 208.214154 272.74432 215.677569 252.163678 215.713503 230.916138 
C 200.54584 217.242867 181.574136 208.498086 161.325992 205.846861 
C 141.077847 203.195636 120.494271 206.76118 102.317611 216.068455 
" clip-path="url(#p26b5f29562)" style="fill: #ff7263; opacity: 0.55"/>
   </g>
   <g id="text_1">
    <!-- 728 -->
    <g transform="translate(55.04147 196.861951) scale(0.1 -0.1)">
     <defs>
      <path id="DejaVuSans-37" d="M 525 4666 
L 3525 4666 
L 3525 4397 
L 1831 0 
L 1172 0 
L 2766 4134 
L 525 4134 
L 525 4666 
z
" transform="scale(0.015625)"/>
      <path id="DejaVuSans-32" d="M 1228 531 
L 3431 531 
L 3431 0 
L 469 0 
L 469 531 
Q 828 903 1448 1529 
Q 2069 2156 2228 2338 
Q 2531 2678 2651 2914 
Q 2772 3150 2772 3378 
Q 2772 3750 2511 3984 
Q 2250 4219 1831 4219 
Q 1534 4219 1204 4116 
Q 875 4013 500 3803 
L 500 4441 
Q 881 4594 1212 4672 
Q 1544 4750 1819 4750 
Q 2544 4750 2975 4387 
Q 3406 4025 3406 3419 
Q 3406 3131 3298 2873 
Q 3191 2616 2906 2266 
Q 2828 2175 2409 1742 
Q 1991 1309 1228 531 
z
" transform="scale(0.015625)"/>
      <path id="DejaVuSans-38" d="M 2034 2216 
Q 1584 2216 1326 1975 
Q 1069 1734 1069 1313 
Q 1069 891 1326 650 
Q 1584 409 2034 409 
Q 2484 409 2743 651 
Q 3003 894 3003 1313 
Q 3003 1734 2745 1975 
Q 2488 2216 2034 2216 
z
M 1403 2484 
Q 997 2584 770 2862 
Q 544 3141 544 3541 
Q 544 4100 942 4425 
Q 1341 4750 2034 4750 
Q 2731 4750 3128 4425 
Q 3525 4100 3525 3541 
Q 3525 3141 3298 2862 
Q 3072 2584 2669 2484 
Q 3125 2378 3379 2068 
Q 3634 1759 3634 1313 
Q 3634 634 3220 271 
Q 2806 -91 2034 -91 
Q 1263 -91 848 271 
Q 434 634 434 1313 
Q 434 1759 690 2068 
Q 947 2378 1403 2484 
z
M 1172 3481 
Q 1172 3119 1398 2916 
Q 1625 2713 2034 2713 
Q 2441 2713 2670 2916 
Q 2900 3119 2900 3481 
Q 2900 3844 2670 4047 
Q 2441 4250 2034 4250 
Q 1625 4250 1398 4047 
Q 1172 3844 1172 3481 
z
" transform="scale(0.015625)"/>
     </defs>
     <use xlink:href="#DejaVuSans-37"/>
     <use xlink:href="#DejaVuSans-32" transform="translate(63.623047 0)"/>
     <use xlink:href="#DejaVuSans-38" transform="translate(127.246094 0)"/>
    </g>
   </g>
   <g id="text_2">
    <!-- 2619 -->
    <g transform="translate(272.251028 202.595663) scale(0.1 -0.1)">
     <defs>
      <path id="DejaVuSans-36" d="M 2113 2584 
Q 1688 2584 1439 2293 
Q 1191 2003 1191 1497 
Q 1191 994 1439 701 
Q 1688 409 2113 409 
Q 2538 409 2786 701 
Q 3034 994 3034 1497 
Q 3034 2003 2786 2293 
Q 2538 2584 2113 2584 
z
M 3366 4563 
L 3366 3988 
Q 3128 4100 2886 4159 
Q 2644 4219 2406 4219 
Q 1781 4219 1451 3797 
Q 1122 3375 1075 2522 
Q 1259 2794 1537 2939 
Q 1816 3084 2150 3084 
Q 2853 3084 3261 2657 
Q 3669 2231 3669 1497 
Q 3669 778 3244 343 
Q 2819 -91 2113 -91 
Q 1303 -91 875 529 
Q 447 1150 447 2328 
Q 447 3434 972 4092 
Q 1497 4750 2381 4750 
Q 2619 4750 2861 4703 
Q 3103 4656 3366 4563 
z
" transform="scale(0.015625)"/>
      <path id="DejaVuSans-31" d="M 794 531 
L 1825 531 
L 1825 4091 
L 703 3866 
L 703 4441 
L 1819 4666 
L 2450 4666 
L 2450 531 
L 3481 531 
L 3481 0 
L 794 0 
L 794 531 
z
" transform="scale(0.015625)"/>
      <path id="DejaVuSans-39" d="M 703 97 
L 703 672 
Q 941 559 1184 500 
Q 1428 441 1663 441 
Q 2288 441 2617 861 
Q 2947 1281 2994 2138 
Q 2813 1869 2534 1725 
Q 2256 1581 1919 1581 
Q 1219 1581 811 2004 
Q 403 2428 403 3163 
Q 403 3881 828 4315 
Q 1253 4750 1959 4750 
Q 2769 4750 3195 4129 
Q 3622 3509 3622 2328 
Q 3622 1225 3098 567 
Q 2575 -91 1691 -91 
Q 1453 -91 1209 -44 
Q 966 3 703 97 
z
M 1959 2075 
Q 2384 2075 2632 2365 
Q 2881 2656 2881 3163 
Q 2881 3666 2632 3958 
Q 2384 4250 1959 4250 
Q 1534 4250 1286 3958 
Q 1038 3666 1038 3163 
Q 1038 2656 1286 2365 
Q 1534 2075 1959 2075 
z
" transform="scale(0.015625)"/>
     </defs>
     <use xlink:href="#DejaVuSans-32"/>
     <use xlink:href="#DejaVuSans-36" transform="translate(63.623047 0)"/>
     <use xlink:href="#DejaVuSans-31" transform="translate(127.246094 0)"/>
     <use xlink:href="#DejaVuSans-39" transform="translate(190.869141 0)"/>
    </g>
   </g>
   <g id="text_3">
    <!-- 526 -->
    <g transform="translate(155.791783 188.006691) scale(0.1 -0.1)">
     <defs>
      <path id="DejaVuSans-35" d="M 691 4666 
L 3169 4666 
L 3169 4134 
L 1269 4134 
L 1269 2991 
Q 1406 3038 1543 3061 
Q 1681 3084 1819 3084 
Q 2600 3084 3056 2656 
Q 3513 2228 3513 1497 
Q 3513 744 3044 326 
Q 2575 -91 1722 -91 
Q 1428 -91 1123 -41 
Q 819 9 494 109 
L 494 744 
Q 775 591 1075 516 
Q 1375 441 1709 441 
Q 2250 441 2565 725 
Q 2881 1009 2881 1497 
Q 2881 1984 2565 2268 
Q 2250 2553 1709 2553 
Q 1456 2553 1204 2497 
Q 953 2441 691 2322 
L 691 4666 
z
" transform="scale(0.015625)"/>
     </defs>
     <use xlink:href="#DejaVuSans-35"/>
     <use xlink:href="#DejaVuSans-32" transform="translate(63.623047 0)"/>
     <use xlink:href="#DejaVuSans-36" transform="translate(127.246094 0)"/>
    </g>
   </g>
   <g id="text_4">
    <!-- 1234 -->
    <g transform="translate(108.885171 373.965687) scale(0.1 -0.1)">
     <defs>
      <path id="DejaVuSans-33" d="M 2597 2516 
Q 3050 2419 3304 2112 
Q 3559 1806 3559 1356 
Q 3559 666 3084 287 
Q 2609 -91 1734 -91 
Q 1441 -91 1130 -33 
Q 819 25 488 141 
L 488 750 
Q 750 597 1062 519 
Q 1375 441 1716 441 
Q 2309 441 2620 675 
Q 2931 909 2931 1356 
Q 2931 1769 2642 2001 
Q 2353 2234 1838 2234 
L 1294 2234 
L 1294 2753 
L 1863 2753 
Q 2328 2753 2575 2939 
Q 2822 3125 2822 3475 
Q 2822 3834 2567 4026 
Q 2313 4219 1838 4219 
Q 1578 4219 1281 4162 
Q 984 4106 628 3988 
L 628 4550 
Q 988 4650 1302 4700 
Q 1616 4750 1894 4750 
Q 2613 4750 3031 4423 
Q 3450 4097 3450 3541 
Q 3450 3153 3228 2886 
Q 3006 2619 2597 2516 
z
" transform="scale(0.015625)"/>
      <path id="DejaVuSans-34" d="M 2419 4116 
L 825 1625 
L 2419 1625 
L 2419 4116 
z
M 2253 4666 
L 3047 4666 
L 3047 1625 
L 3713 1625 
L 3713 1100 
L 3047 1100 
L 3047 0 
L 2419 0 
L 2419 1100 
L 313 1100 
L 313 1709 
L 2253 4666 
z
" transform="scale(0.015625)"/>
     </defs>
     <use xlink:href="#DejaVuSans-31"/>
     <use xlink:href="#DejaVuSans-32" transform="translate(63.623047 0)"/>
     <use xlink:href="#DejaVuSans-33" transform="translate(127.246094 0)"/>
     <use xlink:href="#DejaVuSans-34" transform="translate(190.869141 0)"/>
    </g>
   </g>
   <g id="text_5">
    <!-- 447 -->
    <g transform="translate(80.43042 283.40917) scale(0.1 -0.1)">
     <use xlink:href="#DejaVuSans-34"/>
     <use xlink:href="#DejaVuSans-34" transform="translate(63.623047 0)"/>
     <use xlink:href="#DejaVuSans-37" transform="translate(127.246094 0)"/>
    </g>
   </g>
   <g id="text_6">
    <!-- 631 -->
    <g transform="translate(202.297757 304.995031) scale(0.1 -0.1)">
     <use xlink:href="#DejaVuSans-36"/>
     <use xlink:href="#DejaVuSans-33" transform="translate(63.623047 0)"/>
     <use xlink:href="#DejaVuSans-31" transform="translate(127.246094 0)"/>
    </g>
   </g>
   <g id="text_7">
    <!-- 1053 -->
    <g transform="translate(147.47092 259.19732) scale(0.1 -0.1)">
     <defs>
      <path id="DejaVuSans-30" d="M 2034 4250 
Q 1547 4250 1301 3770 
Q 1056 3291 1056 2328 
Q 1056 1369 1301 889 
Q 1547 409 2034 409 
Q 2525 409 2770 889 
Q 3016 1369 3016 2328 
Q 3016 3291 2770 3770 
Q 2525 4250 2034 4250 
z
M 2034 4750 
Q 2819 4750 3233 4129 
Q 3647 3509 3647 2328 
Q 3647 1150 3233 529 
Q 2819 -91 2034 -91 
Q 1250 -91 836 529 
Q 422 1150 422 2328 
Q 422 3509 836 4129 
Q 1250 4750 2034 4750 
z
" transform="scale(0.015625)"/>
     </defs>
     <use xlink:href="#DejaVuSans-31"/>
     <use xlink:href="#DejaVuSans-30" transform="translate(63.623047 0)"/>
     <use xlink:href="#DejaVuSans-35" transform="translate(127.246094 0)"/>
     <use xlink:href="#DejaVuSans-33" transform="translate(190.869141 0)"/>
    </g>
   </g>
   <g id="text_8">
    <!-- Brain -->
    <g transform="translate(43.155937 139.602253) scale(0.12 -0.12)">
     <defs>
      <path id="DejaVuSans-Bold-42" d="M 2456 2859 
Q 2741 2859 2887 2984 
Q 3034 3109 3034 3353 
Q 3034 3594 2887 3720 
Q 2741 3847 2456 3847 
L 1791 3847 
L 1791 2859 
L 2456 2859 
z
M 2497 819 
Q 2859 819 3042 972 
Q 3225 1125 3225 1434 
Q 3225 1738 3044 1889 
Q 2863 2041 2497 2041 
L 1791 2041 
L 1791 819 
L 2497 819 
z
M 3616 2497 
Q 4003 2384 4215 2081 
Q 4428 1778 4428 1338 
Q 4428 663 3972 331 
Q 3516 0 2584 0 
L 588 0 
L 588 4666 
L 2394 4666 
Q 3366 4666 3802 4372 
Q 4238 4078 4238 3431 
Q 4238 3091 4078 2852 
Q 3919 2613 3616 2497 
z
" transform="scale(0.015625)"/>
      <path id="DejaVuSans-Bold-72" d="M 3138 2547 
Q 2991 2616 2845 2648 
Q 2700 2681 2553 2681 
Q 2122 2681 1889 2404 
Q 1656 2128 1656 1613 
L 1656 0 
L 538 0 
L 538 3500 
L 1656 3500 
L 1656 2925 
Q 1872 3269 2151 3426 
Q 2431 3584 2822 3584 
Q 2878 3584 2943 3579 
Q 3009 3575 3134 3559 
L 3138 2547 
z
" transform="scale(0.015625)"/>
      <path id="DejaVuSans-Bold-61" d="M 2106 1575 
Q 1756 1575 1579 1456 
Q 1403 1338 1403 1106 
Q 1403 894 1545 773 
Q 1688 653 1941 653 
Q 2256 653 2472 879 
Q 2688 1106 2688 1447 
L 2688 1575 
L 2106 1575 
z
M 3816 1997 
L 3816 0 
L 2688 0 
L 2688 519 
Q 2463 200 2181 54 
Q 1900 -91 1497 -91 
Q 953 -91 614 226 
Q 275 544 275 1050 
Q 275 1666 698 1953 
Q 1122 2241 2028 2241 
L 2688 2241 
L 2688 2328 
Q 2688 2594 2478 2717 
Q 2269 2841 1825 2841 
Q 1466 2841 1156 2769 
Q 847 2697 581 2553 
L 581 3406 
Q 941 3494 1303 3539 
Q 1666 3584 2028 3584 
Q 2975 3584 3395 3211 
Q 3816 2838 3816 1997 
z
" transform="scale(0.015625)"/>
      <path id="DejaVuSans-Bold-69" d="M 538 3500 
L 1656 3500 
L 1656 0 
L 538 0 
L 538 3500 
z
M 538 4863 
L 1656 4863 
L 1656 3950 
L 538 3950 
L 538 4863 
z
" transform="scale(0.015625)"/>
      <path id="DejaVuSans-Bold-6e" d="M 4056 2131 
L 4056 0 
L 2931 0 
L 2931 347 
L 2931 1631 
Q 2931 2084 2911 2256 
Q 2891 2428 2841 2509 
Q 2775 2619 2662 2680 
Q 2550 2741 2406 2741 
Q 2056 2741 1856 2470 
Q 1656 2200 1656 1722 
L 1656 0 
L 538 0 
L 538 3500 
L 1656 3500 
L 1656 2988 
Q 1909 3294 2193 3439 
Q 2478 3584 2822 3584 
Q 3428 3584 3742 3212 
Q 4056 2841 4056 2131 
z
" transform="scale(0.015625)"/>
     </defs>
     <use xlink:href="#DejaVuSans-Bold-42"/>
     <use xlink:href="#DejaVuSans-Bold-72" transform="translate(76.220703 0)"/>
     <use xlink:href="#DejaVuSans-Bold-61" transform="translate(125.537109 0)"/>
     <use xlink:href="#DejaVuSans-Bold-69" transform="translate(193.017578 0)"/>
     <use xlink:href="#DejaVuSans-Bold-6e" transform="translate(227.294922 0)"/>
    </g>
   </g>
   <g id="text_9">
    <!-- ONH -->
    <g transform="translate(282.487641 110.050205) scale(0.12 -0.12)">
     <defs>
      <path id="DejaVuSans-Bold-4f" d="M 2719 3878 
Q 2169 3878 1866 3472 
Q 1563 3066 1563 2328 
Q 1563 1594 1866 1187 
Q 2169 781 2719 781 
Q 3272 781 3575 1187 
Q 3878 1594 3878 2328 
Q 3878 3066 3575 3472 
Q 3272 3878 2719 3878 
z
M 2719 4750 
Q 3844 4750 4481 4106 
Q 5119 3463 5119 2328 
Q 5119 1197 4481 553 
Q 3844 -91 2719 -91 
Q 1597 -91 958 553 
Q 319 1197 319 2328 
Q 319 3463 958 4106 
Q 1597 4750 2719 4750 
z
" transform="scale(0.015625)"/>
      <path id="DejaVuSans-Bold-4e" d="M 588 4666 
L 1931 4666 
L 3628 1466 
L 3628 4666 
L 4769 4666 
L 4769 0 
L 3425 0 
L 1728 3200 
L 1728 0 
L 588 0 
L 588 4666 
z
" transform="scale(0.015625)"/>
      <path id="DejaVuSans-Bold-48" d="M 588 4666 
L 1791 4666 
L 1791 2888 
L 3566 2888 
L 3566 4666 
L 4769 4666 
L 4769 0 
L 3566 0 
L 3566 1978 
L 1791 1978 
L 1791 0 
L 588 0 
L 588 4666 
z
" transform="scale(0.015625)"/>
     </defs>
     <use xlink:href="#DejaVuSans-Bold-4f"/>
     <use xlink:href="#DejaVuSans-Bold-4e" transform="translate(85.009766 0)"/>
     <use xlink:href="#DejaVuSans-Bold-48" transform="translate(168.701172 0)"/>
    </g>
   </g>
   <g id="text_10">
    <!-- Retina -->
    <g transform="translate(126.309021 425.720509) scale(0.12 -0.12)">
     <defs>
      <path id="DejaVuSans-Bold-52" d="M 2297 2597 
Q 2675 2597 2839 2737 
Q 3003 2878 3003 3200 
Q 3003 3519 2839 3656 
Q 2675 3794 2297 3794 
L 1791 3794 
L 1791 2597 
L 2297 2597 
z
M 1791 1766 
L 1791 0 
L 588 0 
L 588 4666 
L 2425 4666 
Q 3347 4666 3776 4356 
Q 4206 4047 4206 3378 
Q 4206 2916 3982 2619 
Q 3759 2322 3309 2181 
Q 3556 2125 3751 1926 
Q 3947 1728 4147 1325 
L 4800 0 
L 3519 0 
L 2950 1159 
Q 2778 1509 2601 1637 
Q 2425 1766 2131 1766 
L 1791 1766 
z
" transform="scale(0.015625)"/>
      <path id="DejaVuSans-Bold-65" d="M 4031 1759 
L 4031 1441 
L 1416 1441 
Q 1456 1047 1700 850 
Q 1944 653 2381 653 
Q 2734 653 3104 758 
Q 3475 863 3866 1075 
L 3866 213 
Q 3469 63 3072 -14 
Q 2675 -91 2278 -91 
Q 1328 -91 801 392 
Q 275 875 275 1747 
Q 275 2603 792 3093 
Q 1309 3584 2216 3584 
Q 3041 3584 3536 3087 
Q 4031 2591 4031 1759 
z
M 2881 2131 
Q 2881 2450 2695 2645 
Q 2509 2841 2209 2841 
Q 1884 2841 1681 2658 
Q 1478 2475 1428 2131 
L 2881 2131 
z
" transform="scale(0.015625)"/>
      <path id="DejaVuSans-Bold-74" d="M 1759 4494 
L 1759 3500 
L 2913 3500 
L 2913 2700 
L 1759 2700 
L 1759 1216 
Q 1759 972 1856 886 
Q 1953 800 2241 800 
L 2816 800 
L 2816 0 
L 1856 0 
Q 1194 0 917 276 
Q 641 553 641 1216 
L 641 2700 
L 84 2700 
L 84 3500 
L 641 3500 
L 641 4494 
L 1759 4494 
z
" transform="scale(0.015625)"/>
     </defs>
     <use xlink:href="#DejaVuSans-Bold-52"/>
     <use xlink:href="#DejaVuSans-Bold-65" transform="translate(77.001953 0)"/>
     <use xlink:href="#DejaVuSans-Bold-74" transform="translate(144.824219 0)"/>
     <use xlink:href="#DejaVuSans-Bold-69" transform="translate(192.626953 0)"/>
     <use xlink:href="#DejaVuSans-Bold-6e" transform="translate(226.904297 0)"/>
     <use xlink:href="#DejaVuSans-Bold-61" transform="translate(298.095703 0)"/>
    </g>
   </g>
   <g id="text_11">
    <!-- Upregulated DEGs (LPS vs PBS) -->
    <g transform="translate(63.483864 71.856) scale(0.14 -0.14)">
     <defs>
      <path id="DejaVuSans-Bold-55" d="M 588 4666 
L 1791 4666 
L 1791 1869 
Q 1791 1291 1980 1042 
Q 2169 794 2597 794 
Q 3028 794 3217 1042 
Q 3406 1291 3406 1869 
L 3406 4666 
L 4609 4666 
L 4609 1869 
Q 4609 878 4112 393 
Q 3616 -91 2597 -91 
Q 1581 -91 1084 393 
Q 588 878 588 1869 
L 588 4666 
z
" transform="scale(0.015625)"/>
      <path id="DejaVuSans-Bold-70" d="M 1656 506 
L 1656 -1331 
L 538 -1331 
L 538 3500 
L 1656 3500 
L 1656 2988 
Q 1888 3294 2169 3439 
Q 2450 3584 2816 3584 
Q 3463 3584 3878 3070 
Q 4294 2556 4294 1747 
Q 4294 938 3878 423 
Q 3463 -91 2816 -91 
Q 2450 -91 2169 54 
Q 1888 200 1656 506 
z
M 2400 2772 
Q 2041 2772 1848 2508 
Q 1656 2244 1656 1747 
Q 1656 1250 1848 986 
Q 2041 722 2400 722 
Q 2759 722 2948 984 
Q 3138 1247 3138 1747 
Q 3138 2247 2948 2509 
Q 2759 2772 2400 2772 
z
" transform="scale(0.015625)"/>
      <path id="DejaVuSans-Bold-67" d="M 2919 594 
Q 2688 288 2409 144 
Q 2131 0 1766 0 
Q 1125 0 706 504 
Q 288 1009 288 1791 
Q 288 2575 706 3076 
Q 1125 3578 1766 3578 
Q 2131 3578 2409 3434 
Q 2688 3291 2919 2981 
L 2919 3500 
L 4044 3500 
L 4044 353 
Q 4044 -491 3511 -936 
Q 2978 -1381 1966 -1381 
Q 1638 -1381 1331 -1331 
Q 1025 -1281 716 -1178 
L 716 -306 
Q 1009 -475 1290 -558 
Q 1572 -641 1856 -641 
Q 2406 -641 2662 -400 
Q 2919 -159 2919 353 
L 2919 594 
z
M 2181 2772 
Q 1834 2772 1640 2515 
Q 1447 2259 1447 1791 
Q 1447 1309 1634 1061 
Q 1822 813 2181 813 
Q 2531 813 2725 1069 
Q 2919 1325 2919 1791 
Q 2919 2259 2725 2515 
Q 2531 2772 2181 2772 
z
" transform="scale(0.015625)"/>
      <path id="DejaVuSans-Bold-75" d="M 500 1363 
L 500 3500 
L 1625 3500 
L 1625 3150 
Q 1625 2866 1622 2436 
Q 1619 2006 1619 1863 
Q 1619 1441 1641 1255 
Q 1663 1069 1716 984 
Q 1784 875 1895 815 
Q 2006 756 2150 756 
Q 2500 756 2700 1025 
Q 2900 1294 2900 1772 
L 2900 3500 
L 4019 3500 
L 4019 0 
L 2900 0 
L 2900 506 
Q 2647 200 2364 54 
Q 2081 -91 1741 -91 
Q 1134 -91 817 281 
Q 500 653 500 1363 
z
" transform="scale(0.015625)"/>
      <path id="DejaVuSans-Bold-6c" d="M 538 4863 
L 1656 4863 
L 1656 0 
L 538 0 
L 538 4863 
z
" transform="scale(0.015625)"/>
      <path id="DejaVuSans-Bold-64" d="M 2919 2988 
L 2919 4863 
L 4044 4863 
L 4044 0 
L 2919 0 
L 2919 506 
Q 2688 197 2409 53 
Q 2131 -91 1766 -91 
Q 1119 -91 703 423 
Q 288 938 288 1747 
Q 288 2556 703 3070 
Q 1119 3584 1766 3584 
Q 2128 3584 2408 3439 
Q 2688 3294 2919 2988 
z
M 2181 722 
Q 2541 722 2730 984 
Q 2919 1247 2919 1747 
Q 2919 2247 2730 2509 
Q 2541 2772 2181 2772 
Q 1825 2772 1636 2509 
Q 1447 2247 1447 1747 
Q 1447 1247 1636 984 
Q 1825 722 2181 722 
z
" transform="scale(0.015625)"/>
      <path id="DejaVuSans-Bold-20" transform="scale(0.015625)"/>
      <path id="DejaVuSans-Bold-44" d="M 1791 3756 
L 1791 909 
L 2222 909 
Q 2959 909 3348 1275 
Q 3738 1641 3738 2338 
Q 3738 3031 3350 3393 
Q 2963 3756 2222 3756 
L 1791 3756 
z
M 588 4666 
L 1856 4666 
Q 2919 4666 3439 4514 
Q 3959 4363 4331 4000 
Q 4659 3684 4818 3271 
Q 4978 2859 4978 2338 
Q 4978 1809 4818 1395 
Q 4659 981 4331 666 
Q 3956 303 3431 151 
Q 2906 0 1856 0 
L 588 0 
L 588 4666 
z
" transform="scale(0.015625)"/>
      <path id="DejaVuSans-Bold-45" d="M 588 4666 
L 3834 4666 
L 3834 3756 
L 1791 3756 
L 1791 2888 
L 3713 2888 
L 3713 1978 
L 1791 1978 
L 1791 909 
L 3903 909 
L 3903 0 
L 588 0 
L 588 4666 
z
" transform="scale(0.015625)"/>
      <path id="DejaVuSans-Bold-47" d="M 4781 347 
Q 4331 128 3847 18 
Q 3363 -91 2847 -91 
Q 1681 -91 1000 561 
Q 319 1213 319 2328 
Q 319 3456 1012 4103 
Q 1706 4750 2913 4750 
Q 3378 4750 3804 4662 
Q 4231 4575 4609 4403 
L 4609 3438 
Q 4219 3659 3833 3768 
Q 3447 3878 3059 3878 
Q 2341 3878 1952 3476 
Q 1563 3075 1563 2328 
Q 1563 1588 1938 1184 
Q 2313 781 3003 781 
Q 3191 781 3352 804 
Q 3513 828 3641 878 
L 3641 1784 
L 2906 1784 
L 2906 2591 
L 4781 2591 
L 4781 347 
z
" transform="scale(0.015625)"/>
      <path id="DejaVuSans-Bold-73" d="M 3272 3391 
L 3272 2541 
Q 2913 2691 2578 2766 
Q 2244 2841 1947 2841 
Q 1628 2841 1473 2761 
Q 1319 2681 1319 2516 
Q 1319 2381 1436 2309 
Q 1553 2238 1856 2203 
L 2053 2175 
Q 2913 2066 3209 1816 
Q 3506 1566 3506 1031 
Q 3506 472 3093 190 
Q 2681 -91 1863 -91 
Q 1516 -91 1145 -36 
Q 775 19 384 128 
L 384 978 
Q 719 816 1070 734 
Q 1422 653 1784 653 
Q 2113 653 2278 743 
Q 2444 834 2444 1013 
Q 2444 1163 2330 1236 
Q 2216 1309 1875 1350 
L 1678 1375 
Q 931 1469 631 1722 
Q 331 1975 331 2491 
Q 331 3047 712 3315 
Q 1094 3584 1881 3584 
Q 2191 3584 2531 3537 
Q 2872 3491 3272 3391 
z
" transform="scale(0.015625)"/>
      <path id="DejaVuSans-Bold-28" d="M 2413 -844 
L 1484 -844 
Q 1006 -72 778 623 
Q 550 1319 550 2003 
Q 550 2688 779 3389 
Q 1009 4091 1484 4856 
L 2413 4856 
Q 2013 4116 1813 3408 
Q 1613 2700 1613 2009 
Q 1613 1319 1811 609 
Q 2009 -100 2413 -844 
z
" transform="scale(0.015625)"/>
      <path id="DejaVuSans-Bold-4c" d="M 588 4666 
L 1791 4666 
L 1791 909 
L 3903 909 
L 3903 0 
L 588 0 
L 588 4666 
z
" transform="scale(0.015625)"/>
      <path id="DejaVuSans-Bold-50" d="M 588 4666 
L 2584 4666 
Q 3475 4666 3951 4270 
Q 4428 3875 4428 3144 
Q 4428 2409 3951 2014 
Q 3475 1619 2584 1619 
L 1791 1619 
L 1791 0 
L 588 0 
L 588 4666 
z
M 1791 3794 
L 1791 2491 
L 2456 2491 
Q 2806 2491 2997 2661 
Q 3188 2831 3188 3144 
Q 3188 3456 2997 3625 
Q 2806 3794 2456 3794 
L 1791 3794 
z
" transform="scale(0.015625)"/>
      <path id="DejaVuSans-Bold-53" d="M 3834 4519 
L 3834 3531 
Q 3450 3703 3084 3790 
Q 2719 3878 2394 3878 
Q 1963 3878 1756 3759 
Q 1550 3641 1550 3391 
Q 1550 3203 1689 3098 
Q 1828 2994 2194 2919 
L 2706 2816 
Q 3484 2659 3812 2340 
Q 4141 2022 4141 1434 
Q 4141 663 3683 286 
Q 3225 -91 2284 -91 
Q 1841 -91 1394 -6 
Q 947 78 500 244 
L 500 1259 
Q 947 1022 1364 901 
Q 1781 781 2169 781 
Q 2563 781 2772 912 
Q 2981 1044 2981 1288 
Q 2981 1506 2839 1625 
Q 2697 1744 2272 1838 
L 1806 1941 
Q 1106 2091 782 2419 
Q 459 2747 459 3303 
Q 459 4000 909 4375 
Q 1359 4750 2203 4750 
Q 2588 4750 2994 4692 
Q 3400 4634 3834 4519 
z
" transform="scale(0.015625)"/>
      <path id="DejaVuSans-Bold-76" d="M 97 3500 
L 1216 3500 
L 2088 1081 
L 2956 3500 
L 4078 3500 
L 2700 0 
L 1472 0 
L 97 3500 
z
" transform="scale(0.015625)"/>
      <path id="DejaVuSans-Bold-29" d="M 513 -844 
Q 913 -100 1113 609 
Q 1313 1319 1313 2009 
Q 1313 2700 1113 3408 
Q 913 4116 513 4856 
L 1441 4856 
Q 1916 4091 2145 3389 
Q 2375 2688 2375 2003 
Q 2375 1319 2147 623 
Q 1919 -72 1441 -844 
L 513 -844 
z
" transform="scale(0.015625)"/>
     </defs>
     <use xlink:href="#DejaVuSans-Bold-55"/>
     <use xlink:href="#DejaVuSans-Bold-70" transform="translate(81.201172 0)"/>
     <use xlink:href="#DejaVuSans-Bold-72" transform="translate(152.783203 0)"/>
     <use xlink:href="#DejaVuSans-Bold-65" transform="translate(202.099609 0)"/>
     <use xlink:href="#DejaVuSans-Bold-67" transform="translate(269.921875 0)"/>
     <use xlink:href="#DejaVuSans-Bold-75" transform="translate(341.503906 0)"/>
     <use xlink:href="#DejaVuSans-Bold-6c" transform="translate(412.695312 0)"/>
     <use xlink:href="#DejaVuSans-Bold-61" transform="translate(446.972656 0)"/>
     <use xlink:href="#DejaVuSans-Bold-74" transform="translate(514.453125 0)"/>
     <use xlink:href="#DejaVuSans-Bold-65" transform="translate(562.255859 0)"/>
     <use xlink:href="#DejaVuSans-Bold-64" transform="translate(630.078125 0)"/>
     <use xlink:href="#DejaVuSans-Bold-20" transform="translate(701.660156 0)"/>
     <use xlink:href="#DejaVuSans-Bold-44" transform="translate(736.474609 0)"/>
     <use xlink:href="#DejaVuSans-Bold-45" transform="translate(819.482422 0)"/>
     <use xlink:href="#DejaVuSans-Bold-47" transform="translate(887.792969 0)"/>
     <use xlink:href="#DejaVuSans-Bold-73" transform="translate(969.873047 0)"/>
     <use xlink:href="#DejaVuSans-Bold-20" transform="translate(1029.394531 0)"/>
     <use xlink:href="#DejaVuSans-Bold-28" transform="translate(1064.208984 0)"/>
     <use xlink:href="#DejaVuSans-Bold-4c" transform="translate(1109.912109 0)"/>
     <use xlink:href="#DejaVuSans-Bold-50" transform="translate(1173.632812 0)"/>
     <use xlink:href="#DejaVuSans-Bold-53" transform="translate(1246.923828 0)"/>
     <use xlink:href="#DejaVuSans-Bold-20" transform="translate(1318.945312 0)"/>
     <use xlink:href="#DejaVuSans-Bold-76" transform="translate(1353.759766 0)"/>
     <use xlink:href="#DejaVuSans-Bold-73" transform="translate(1418.945312 0)"/>
     <use xlink:href="#DejaVuSans-Bold-20" transform="translate(1478.466797 0)"/>
     <use xlink:href="#DejaVuSans-Bold-50" transform="translate(1513.28125 0)"/>
     <use xlink:href="#DejaVuSans-Bold-42" transform="translate(1586.572266 0)"/>
     <use xlink:href="#DejaVuSans-Bold-53" transform="translate(1662.792969 0)"/>
     <use xlink:href="#DejaVuSans-Bold-29" transform="translate(1734.814453 0)"/>
    </g>
   </g>
  </g>
  <g id="axes_2">
   <g id="patch_9">
    <path d="M 615.570367 159.677271 
C 597.987705 156.894565 579.968824 159.999825 564.331856 168.507392 
C 548.694888 177.014959 536.29987 190.456916 529.085366 206.730956 
C 521.870862 223.004997 520.233672 241.216046 524.42985 258.515917 
C 528.626029 275.815789 538.424786 291.252986 552.293607 302.41315 
C 555.310987 292.863157 560.099658 283.966108 566.408868 276.18788 
C 572.718078 268.409652 580.435748 261.888423 589.157755 256.965665 
C 586.811827 239.807188 587.941248 222.350828 592.478658 205.637702 
C 597.016068 188.924575 604.869432 173.293684 615.570367 159.677271 
" clip-path="url(#p49a84f9919)" style="fill: #1f77b4; opacity: 0.55"/>
   </g>
   <g id="patch_10">
    <path d="M 615.570367 159.677271 
C 627.173002 161.513554 638.23673 165.858557 647.98817 172.408557 
C 657.739609 178.958557 665.946125 187.557291 672.034061 197.603689 
C 678.121997 207.650087 681.946117 218.904474 683.239105 230.580144 
C 684.532092 242.255813 683.263102 254.074222 679.520839 265.209237 
C 694.047184 277.34037 703.793993 294.252829 707.007563 312.903621 
C 710.221132 331.554413 706.696429 350.753581 697.067641 367.046692 
C 719.531947 370.575174 742.534705 368.108297 763.739961 359.896576 
C 784.945217 351.684855 803.610016 338.015999 817.838928 320.278093 
C 832.06784 302.540188 841.362337 281.354705 844.778552 258.873052 
C 848.194767 236.391399 845.613009 213.401252 837.295458 192.237283 
C 828.977907 171.073314 815.215979 152.477032 797.407213 138.336908 
C 779.598447 124.196785 758.366797 115.008238 735.868359 111.704375 
C 713.369921 108.400511 690.392957 111.097087 669.270804 119.520261 
C 648.14865 127.943434 629.621349 141.79809 615.570367 159.677271 
" clip-path="url(#p49a84f9919)" style="fill: #17becf; opacity: 0.55"/>
   </g>
   <g id="patch_11">
    <path d="M 615.570367 159.677271 
C 604.869432 173.293684 597.016068 188.924575 592.478658 205.637702 
C 587.941248 222.350828 586.811827 239.807188 589.157755 256.965665 
C 603.272332 248.999304 619.484679 245.519509 635.625189 246.991963 
C 651.765699 248.464417 667.080759 254.820368 679.520839 265.209237 
C 683.263102 254.074222 684.532092 242.255813 683.239105 230.580144 
C 681.946117 218.904474 678.121997 207.650087 672.034061 197.603689 
C 665.946125 187.557291 657.739609 178.958557 647.98817 172.408557 
C 638.23673 165.858557 627.173002 161.513554 615.570367 159.677271 
" clip-path="url(#p49a84f9919)" style="fill: #26d8ff; opacity: 0.55"/>
   </g>
   <g id="patch_12">
    <path d="M 552.293607 302.41315 
C 546.392717 321.089432 547.57036 341.299999 555.600435 359.164542 
C 563.63051 377.029085 577.963971 391.326139 595.848879 399.310754 
C 613.733787 407.295369 633.947283 408.421608 652.608498 402.473238 
C 671.269712 396.524869 687.102706 383.908605 697.067641 367.046692 
C 681.097369 364.538233 665.739216 359.053097 651.793134 350.876987 
C 637.847053 342.700877 625.559458 331.978256 615.570367 319.26763 
C 604.431294 321.030547 593.045513 320.441635 582.147764 317.538896 
C 571.250015 314.636158 561.079865 309.483404 552.293607 302.41315 
" clip-path="url(#p49a84f9919)" style="fill: #9467bd; opacity: 0.55"/>
   </g>
   <g id="patch_13">
    <path d="M 552.293607 302.41315 
C 561.079865 309.483404 571.250015 314.636158 582.147764 317.538896 
C 593.045513 320.441635 604.431294 321.030547 615.570367 319.26763 
C 608.508878 310.282233 602.671276 300.399101 598.210676 289.877454 
C 593.750076 279.355808 590.70582 268.288451 589.157755 256.965665 
C 580.435748 261.888423 572.718078 268.409652 566.408868 276.18788 
C 560.099658 283.966108 555.310987 292.863157 552.293607 302.41315 
" clip-path="url(#p49a84f9919)" style="fill: #7d9bff; opacity: 0.55"/>
   </g>
   <g id="patch_14">
    <path d="M 679.520839 265.209237 
C 674.818277 279.201598 666.369471 291.641085 655.096132 301.170625 
C 643.822794 310.700164 630.150345 316.960141 615.570367 319.26763 
C 625.559458 331.978256 637.847053 342.700877 651.793134 350.876987 
C 665.739216 359.053097 681.097369 364.538233 697.067641 367.046692 
C 706.696429 350.753581 710.221132 331.554413 707.007563 312.903621 
C 703.793993 294.252829 694.047184 277.34037 679.520839 265.209237 
" clip-path="url(#p49a84f9919)" style="fill: #78cdff; opacity: 0.55"/>
   </g>
   <g id="patch_15">
    <path d="M 589.157755 256.965665 
C 590.70582 268.288451 593.750076 279.355808 598.210676 289.877454 
C 602.671276 300.399101 608.508878 310.282233 615.570367 319.26763 
C 630.150345 316.960141 643.822794 310.700164 655.096132 301.170625 
C 666.369471 291.641085 674.818277 279.201598 679.520839 265.209237 
C 667.080759 254.820368 651.765699 248.464417 635.625189 246.991963 
C 619.484679 245.519509 603.272332 248.999304 589.157755 256.965665 
" clip-path="url(#p49a84f9919)" style="fill: #51a5e6; opacity: 0.55"/>
   </g>
   <g id="text_12">
    <!-- 638 -->
    <g transform="translate(538.436869 221.776494) scale(0.1 -0.1)">
     <use xlink:href="#DejaVuSans-36"/>
     <use xlink:href="#DejaVuSans-33" transform="translate(63.623047 0)"/>
     <use xlink:href="#DejaVuSans-38" transform="translate(127.246094 0)"/>
    </g>
   </g>
   <g id="text_13">
    <!-- 3227 -->
    <g transform="translate(760.509666 219.397152) scale(0.1 -0.1)">
     <use xlink:href="#DejaVuSans-33"/>
     <use xlink:href="#DejaVuSans-32" transform="translate(63.623047 0)"/>
     <use xlink:href="#DejaVuSans-32" transform="translate(127.246094 0)"/>
     <use xlink:href="#DejaVuSans-37" transform="translate(190.869141 0)"/>
    </g>
   </g>
   <g id="text_14">
    <!-- 612 -->
    <g transform="translate(633.729951 218.0139) scale(0.1 -0.1)">
     <use xlink:href="#DejaVuSans-36"/>
     <use xlink:href="#DejaVuSans-31" transform="translate(63.623047 0)"/>
     <use xlink:href="#DejaVuSans-32" transform="translate(127.246094 0)"/>
    </g>
   </g>
   <g id="text_15">
    <!-- 754 -->
    <g transform="translate(593.078804 378.830522) scale(0.1 -0.1)">
     <use xlink:href="#DejaVuSans-37"/>
     <use xlink:href="#DejaVuSans-35" transform="translate(63.623047 0)"/>
     <use xlink:href="#DejaVuSans-34" transform="translate(127.246094 0)"/>
    </g>
   </g>
   <g id="text_16">
    <!-- 191 -->
    <g transform="translate(571.043147 298.689345) scale(0.1 -0.1)">
     <use xlink:href="#DejaVuSans-31"/>
     <use xlink:href="#DejaVuSans-39" transform="translate(63.623047 0)"/>
     <use xlink:href="#DejaVuSans-31" transform="translate(127.246094 0)"/>
    </g>
   </g>
   <g id="text_17">
    <!-- 451 -->
    <g transform="translate(667.311154 320.483841) scale(0.1 -0.1)">
     <use xlink:href="#DejaVuSans-34"/>
     <use xlink:href="#DejaVuSans-35" transform="translate(63.623047 0)"/>
     <use xlink:href="#DejaVuSans-31" transform="translate(127.246094 0)"/>
    </g>
   </g>
   <g id="text_18">
    <!-- 391 -->
    <g transform="translate(626.568732 278.651646) scale(0.1 -0.1)">
     <use xlink:href="#DejaVuSans-33"/>
     <use xlink:href="#DejaVuSans-39" transform="translate(63.623047 0)"/>
     <use xlink:href="#DejaVuSans-31" transform="translate(127.246094 0)"/>
    </g>
   </g>
   <g id="text_19">
    <!-- Brain -->
    <g transform="translate(526.729351 158.684114) scale(0.12 -0.12)">
     <use xlink:href="#DejaVuSans-Bold-42"/>
     <use xlink:href="#DejaVuSans-Bold-72" transform="translate(76.220703 0)"/>
     <use xlink:href="#DejaVuSans-Bold-61" transform="translate(125.537109 0)"/>
     <use xlink:href="#DejaVuSans-Bold-69" transform="translate(193.017578 0)"/>
     <use xlink:href="#DejaVuSans-Bold-6e" transform="translate(227.294922 0)"/>
    </g>
   </g>
   <g id="text_20">
    <!-- ONH -->
    <g transform="translate(781.674978 110.334095) scale(0.12 -0.12)">
     <use xlink:href="#DejaVuSans-Bold-4f"/>
     <use xlink:href="#DejaVuSans-Bold-4e" transform="translate(85.009766 0)"/>
     <use xlink:href="#DejaVuSans-Bold-48" transform="translate(168.701172 0)"/>
    </g>
   </g>
   <g id="text_21">
    <!-- Retina -->
    <g transform="translate(606.441588 423.339025) scale(0.12 -0.12)">
     <use xlink:href="#DejaVuSans-Bold-52"/>
     <use xlink:href="#DejaVuSans-Bold-65" transform="translate(77.001953 0)"/>
     <use xlink:href="#DejaVuSans-Bold-74" transform="translate(144.824219 0)"/>
     <use xlink:href="#DejaVuSans-Bold-69" transform="translate(192.626953 0)"/>
     <use xlink:href="#DejaVuSans-Bold-6e" transform="translate(226.904297 0)"/>
     <use xlink:href="#DejaVuSans-Bold-61" transform="translate(298.095703 0)"/>
    </g>
   </g>
   <g id="text_22">
    <!-- Downregulated DEGs (LPS vs PBS) -->
    <g transform="translate(548.187638 71.856) scale(0.14 -0.14)">
     <defs>
      <path id="DejaVuSans-Bold-6f" d="M 2203 2784 
Q 1831 2784 1636 2517 
Q 1441 2250 1441 1747 
Q 1441 1244 1636 976 
Q 1831 709 2203 709 
Q 2569 709 2762 976 
Q 2956 1244 2956 1747 
Q 2956 2250 2762 2517 
Q 2569 2784 2203 2784 
z
M 2203 3584 
Q 3106 3584 3614 3096 
Q 4122 2609 4122 1747 
Q 4122 884 3614 396 
Q 3106 -91 2203 -91 
Q 1297 -91 786 396 
Q 275 884 275 1747 
Q 275 2609 786 3096 
Q 1297 3584 2203 3584 
z
" transform="scale(0.015625)"/>
      <path id="DejaVuSans-Bold-77" d="M 225 3500 
L 1313 3500 
L 1900 1088 
L 2491 3500 
L 3425 3500 
L 4013 1113 
L 4603 3500 
L 5691 3500 
L 4769 0 
L 3547 0 
L 2956 2406 
L 2369 0 
L 1147 0 
L 225 3500 
z
" transform="scale(0.015625)"/>
     </defs>
     <use xlink:href="#DejaVuSans-Bold-44"/>
     <use xlink:href="#DejaVuSans-Bold-6f" transform="translate(83.007812 0)"/>
     <use xlink:href="#DejaVuSans-Bold-77" transform="translate(151.708984 0)"/>
     <use xlink:href="#DejaVuSans-Bold-6e" transform="translate(244.091797 0)"/>
     <use xlink:href="#DejaVuSans-Bold-72" transform="translate(315.283203 0)"/>
     <use xlink:href="#DejaVuSans-Bold-65" transform="translate(364.599609 0)"/>
     <use xlink:href="#DejaVuSans-Bold-67" transform="translate(432.421875 0)"/>
     <use xlink:href="#DejaVuSans-Bold-75" transform="translate(504.003906 0)"/>
     <use xlink:href="#DejaVuSans-Bold-6c" transform="translate(575.195312 0)"/>
     <use xlink:href="#DejaVuSans-Bold-61" transform="translate(609.472656 0)"/>
     <use xlink:href="#DejaVuSans-Bold-74" transform="translate(676.953125 0)"/>
     <use xlink:href="#DejaVuSans-Bold-65" transform="translate(724.755859 0)"/>
     <use xlink:href="#DejaVuSans-Bold-64" transform="translate(792.578125 0)"/>
     <use xlink:href="#DejaVuSans-Bold-20" transform="translate(864.160156 0)"/>
     <use xlink:href="#DejaVuSans-Bold-44" transform="translate(898.974609 0)"/>
     <use xlink:href="#DejaVuSans-Bold-45" transform="translate(981.982422 0)"/>
     <use xlink:href="#DejaVuSans-Bold-47" transform="translate(1050.292969 0)"/>
     <use xlink:href="#DejaVuSans-Bold-73" transform="translate(1132.373047 0)"/>
     <use xlink:href="#DejaVuSans-Bold-20" transform="translate(1191.894531 0)"/>
     <use xlink:href="#DejaVuSans-Bold-28" transform="translate(1226.708984 0)"/>
     <use xlink:href="#DejaVuSans-Bold-4c" transform="translate(1272.412109 0)"/>
     <use xlink:href="#DejaVuSans-Bold-50" transform="translate(1336.132812 0)"/>
     <use xlink:href="#DejaVuSans-Bold-53" transform="translate(1409.423828 0)"/>
     <use xlink:href="#DejaVuSans-Bold-20" transform="translate(1481.445312 0)"/>
     <use xlink:href="#DejaVuSans-Bold-76" transform="translate(1516.259766 0)"/>
     <use xlink:href="#DejaVuSans-Bold-73" transform="translate(1581.445312 0)"/>
     <use xlink:href="#DejaVuSans-Bold-20" transform="translate(1640.966797 0)"/>
     <use xlink:href="#DejaVuSans-Bold-50" transform="translate(1675.78125 0)"/>
     <use xlink:href="#DejaVuSans-Bold-42" transform="translate(1749.072266 0)"/>
     <use xlink:href="#DejaVuSans-Bold-53" transform="translate(1825.292969 0)"/>
     <use xlink:href="#DejaVuSans-Bold-29" transform="translate(1897.314453 0)"/>
    </g>
   </g>
  </g>
  <g id="text_23">
   <!-- Overlap of Differentially Expressed Genes Across Tissues -->
   <g transform="translate(226.357079 17.077969) scale(0.13 -0.13)">
    <defs>
     <path id="DejaVuSans-Bold-66" d="M 2841 4863 
L 2841 4128 
L 2222 4128 
Q 1984 4128 1890 4042 
Q 1797 3956 1797 3744 
L 1797 3500 
L 2753 3500 
L 2753 2700 
L 1797 2700 
L 1797 0 
L 678 0 
L 678 2700 
L 122 2700 
L 122 3500 
L 678 3500 
L 678 3744 
Q 678 4316 997 4589 
Q 1316 4863 1984 4863 
L 2841 4863 
z
" transform="scale(0.015625)"/>
     <path id="DejaVuSans-Bold-79" d="M 78 3500 
L 1197 3500 
L 2138 1125 
L 2938 3500 
L 4056 3500 
L 2584 -331 
Q 2363 -916 2067 -1148 
Q 1772 -1381 1288 -1381 
L 641 -1381 
L 641 -647 
L 991 -647 
Q 1275 -647 1404 -556 
Q 1534 -466 1606 -231 
L 1638 -134 
L 78 3500 
z
" transform="scale(0.015625)"/>
     <path id="DejaVuSans-Bold-78" d="M 1422 1791 
L 159 3500 
L 1344 3500 
L 2059 2463 
L 2784 3500 
L 3969 3500 
L 2706 1797 
L 4031 0 
L 2847 0 
L 2059 1106 
L 1281 0 
L 97 0 
L 1422 1791 
z
" transform="scale(0.015625)"/>
     <path id="DejaVuSans-Bold-41" d="M 3419 850 
L 1538 850 
L 1241 0 
L 31 0 
L 1759 4666 
L 3194 4666 
L 4922 0 
L 3713 0 
L 3419 850 
z
M 1838 1716 
L 3116 1716 
L 2478 3572 
L 1838 1716 
z
" transform="scale(0.015625)"/>
     <path id="DejaVuSans-Bold-63" d="M 3366 3391 
L 3366 2478 
Q 3138 2634 2908 2709 
Q 2678 2784 2431 2784 
Q 1963 2784 1702 2511 
Q 1441 2238 1441 1747 
Q 1441 1256 1702 982 
Q 1963 709 2431 709 
Q 2694 709 2930 787 
Q 3166 866 3366 1019 
L 3366 103 
Q 3103 6 2833 -42 
Q 2563 -91 2291 -91 
Q 1344 -91 809 395 
Q 275 881 275 1747 
Q 275 2613 809 3098 
Q 1344 3584 2291 3584 
Q 2566 3584 2833 3536 
Q 3100 3488 3366 3391 
z
" transform="scale(0.015625)"/>
     <path id="DejaVuSans-Bold-54" d="M 31 4666 
L 4331 4666 
L 4331 3756 
L 2784 3756 
L 2784 0 
L 1581 0 
L 1581 3756 
L 31 3756 
L 31 4666 
z
" transform="scale(0.015625)"/>
    </defs>
    <use xlink:href="#DejaVuSans-Bold-4f"/>
    <use xlink:href="#DejaVuSans-Bold-76" transform="translate(85.009766 0)"/>
    <use xlink:href="#DejaVuSans-Bold-65" transform="translate(150.195312 0)"/>
    <use xlink:href="#DejaVuSans-Bold-72" transform="translate(218.017578 0)"/>
    <use xlink:href="#DejaVuSans-Bold-6c" transform="translate(267.333984 0)"/>
    <use xlink:href="#DejaVuSans-Bold-61" transform="translate(301.611328 0)"/>
    <use xlink:href="#DejaVuSans-Bold-70" transform="translate(369.091797 0)"/>
    <use xlink:href="#DejaVuSans-Bold-20" transform="translate(440.673828 0)"/>
    <use xlink:href="#DejaVuSans-Bold-6f" transform="translate(475.488281 0)"/>
    <use xlink:href="#DejaVuSans-Bold-66" transform="translate(544.189453 0)"/>
    <use xlink:href="#DejaVuSans-Bold-20" transform="translate(587.695312 0)"/>
    <use xlink:href="#DejaVuSans-Bold-44" transform="translate(622.509766 0)"/>
    <use xlink:href="#DejaVuSans-Bold-69" transform="translate(705.517578 0)"/>
    <use xlink:href="#DejaVuSans-Bold-66" transform="translate(739.794922 0)"/>
    <use xlink:href="#DejaVuSans-Bold-66" transform="translate(783.300781 0)"/>
    <use xlink:href="#DejaVuSans-Bold-65" transform="translate(826.806641 0)"/>
    <use xlink:href="#DejaVuSans-Bold-72" transform="translate(894.628906 0)"/>
    <use xlink:href="#DejaVuSans-Bold-65" transform="translate(943.945312 0)"/>
    <use xlink:href="#DejaVuSans-Bold-6e" transform="translate(1011.767578 0)"/>
    <use xlink:href="#DejaVuSans-Bold-74" transform="translate(1082.958984 0)"/>
    <use xlink:href="#DejaVuSans-Bold-69" transform="translate(1130.761719 0)"/>
    <use xlink:href="#DejaVuSans-Bold-61" transform="translate(1165.039062 0)"/>
    <use xlink:href="#DejaVuSans-Bold-6c" transform="translate(1232.519531 0)"/>
    <use xlink:href="#DejaVuSans-Bold-6c" transform="translate(1266.796875 0)"/>
    <use xlink:href="#DejaVuSans-Bold-79" transform="translate(1301.074219 0)"/>
    <use xlink:href="#DejaVuSans-Bold-20" transform="translate(1366.259766 0)"/>
    <use xlink:href="#DejaVuSans-Bold-45" transform="translate(1401.074219 0)"/>
    <use xlink:href="#DejaVuSans-Bold-78" transform="translate(1469.384766 0)"/>
    <use xlink:href="#DejaVuSans-Bold-70" transform="translate(1533.886719 0)"/>
    <use xlink:href="#DejaVuSans-Bold-72" transform="translate(1605.46875 0)"/>
    <use xlink:href="#DejaVuSans-Bold-65" transform="translate(1654.785156 0)"/>
    <use xlink:href="#DejaVuSans-Bold-73" transform="translate(1722.607422 0)"/>
    <use xlink:href="#DejaVuSans-Bold-73" transform="translate(1782.128906 0)"/>
    <use xlink:href="#DejaVuSans-Bold-65" transform="translate(1841.650391 0)"/>
    <use xlink:href="#DejaVuSans-Bold-64" transform="translate(1909.472656 0)"/>
    <use xlink:href="#DejaVuSans-Bold-20" transform="translate(1981.054688 0)"/>
    <use xlink:href="#DejaVuSans-Bold-47" transform="translate(2015.869141 0)"/>
    <use xlink:href="#DejaVuSans-Bold-65" transform="translate(2097.949219 0)"/>
    <use xlink:href="#DejaVuSans-Bold-6e" transform="translate(2165.771484 0)"/>
    <use xlink:href="#DejaVuSans-Bold-65" transform="translate(2236.962891 0)"/>
    <use xlink:href="#DejaVuSans-Bold-73" transform="translate(2304.785156 0)"/>
    <use xlink:href="#DejaVuSans-Bold-20" transform="translate(2364.306641 0)"/>
    <use xlink:href="#DejaVuSans-Bold-41" transform="translate(2399.121094 0)"/>
    <use xlink:href="#DejaVuSans-Bold-63" transform="translate(2476.513672 0)"/>
    <use xlink:href="#DejaVuSans-Bold-72" transform="translate(2535.791016 0)"/>
    <use xlink:href="#DejaVuSans-Bold-6f" transform="translate(2585.107422 0)"/>
    <use xlink:href="#DejaVuSans-Bold-73" transform="translate(2653.808594 0)"/>
    <use xlink:href="#DejaVuSans-Bold-73" transform="translate(2713.330078 0)"/>
    <use xlink:href="#DejaVuSans-Bold-20" transform="translate(2772.851562 0)"/>
    <use xlink:href="#DejaVuSans-Bold-54" transform="translate(2807.666016 0)"/>
    <use xlink:href="#DejaVuSans-Bold-69" transform="translate(2875.878906 0)"/>
    <use xlink:href="#DejaVuSans-Bold-73" transform="translate(2910.15625 0)"/>
    <use xlink:href="#DejaVuSans-Bold-73" transform="translate(2969.677734 0)"/>
    <use xlink:href="#DejaVuSans-Bold-75" transform="translate(3029.199219 0)"/>
    <use xlink:href="#DejaVuSans-Bold-65" transform="translate(3100.390625 0)"/>
    <use xlink:href="#DejaVuSans-Bold-73" transform="translate(3168.212891 0)"/>
   </g>
   <!-- (FDR &lt;= 0.05, |logFC| &gt;= 0.5) -->
   <g transform="translate(326.948641 31.804937) scale(0.13 -0.13)">
    <defs>
     <path id="DejaVuSans-Bold-46" d="M 588 4666 
L 3834 4666 
L 3834 3756 
L 1791 3756 
L 1791 2888 
L 3713 2888 
L 3713 1978 
L 1791 1978 
L 1791 0 
L 588 0 
L 588 4666 
z
" transform="scale(0.015625)"/>
     <path id="DejaVuSans-Bold-3c" d="M 4684 3041 
L 1672 2003 
L 4684 972 
L 4684 191 
L 678 1638 
L 678 2375 
L 4684 3822 
L 4684 3041 
z
" transform="scale(0.015625)"/>
     <path id="DejaVuSans-Bold-3d" d="M 678 3084 
L 4684 3084 
L 4684 2350 
L 678 2350 
L 678 3084 
z
M 678 1663 
L 4684 1663 
L 4684 922 
L 678 922 
L 678 1663 
z
" transform="scale(0.015625)"/>
     <path id="DejaVuSans-Bold-30" d="M 2944 2338 
Q 2944 3213 2780 3570 
Q 2616 3928 2228 3928 
Q 1841 3928 1675 3570 
Q 1509 3213 1509 2338 
Q 1509 1453 1675 1090 
Q 1841 728 2228 728 
Q 2613 728 2778 1090 
Q 2944 1453 2944 2338 
z
M 4147 2328 
Q 4147 1169 3647 539 
Q 3147 -91 2228 -91 
Q 1306 -91 806 539 
Q 306 1169 306 2328 
Q 306 3491 806 4120 
Q 1306 4750 2228 4750 
Q 3147 4750 3647 4120 
Q 4147 3491 4147 2328 
z
" transform="scale(0.015625)"/>
     <path id="DejaVuSans-Bold-2e" d="M 653 1209 
L 1778 1209 
L 1778 0 
L 653 0 
L 653 1209 
z
" transform="scale(0.015625)"/>
     <path id="DejaVuSans-Bold-35" d="M 678 4666 
L 3669 4666 
L 3669 3781 
L 1638 3781 
L 1638 3059 
Q 1775 3097 1914 3117 
Q 2053 3138 2203 3138 
Q 3056 3138 3531 2711 
Q 4006 2284 4006 1522 
Q 4006 766 3489 337 
Q 2972 -91 2053 -91 
Q 1656 -91 1267 -14 
Q 878 63 494 219 
L 494 1166 
Q 875 947 1217 837 
Q 1559 728 1863 728 
Q 2300 728 2551 942 
Q 2803 1156 2803 1522 
Q 2803 1891 2551 2103 
Q 2300 2316 1863 2316 
Q 1603 2316 1309 2248 
Q 1016 2181 678 2041 
L 678 4666 
z
" transform="scale(0.015625)"/>
     <path id="DejaVuSans-Bold-2c" d="M 653 1209 
L 1778 1209 
L 1778 256 
L 1006 -909 
L 341 -909 
L 653 256 
L 653 1209 
z
" transform="scale(0.015625)"/>
     <path id="DejaVuSans-Bold-7c" d="M 1522 4891 
L 1522 -1509 
L 813 -1509 
L 813 4891 
L 1522 4891 
z
" transform="scale(0.015625)"/>
     <path id="DejaVuSans-Bold-43" d="M 4288 256 
Q 3956 84 3597 -3 
Q 3238 -91 2847 -91 
Q 1681 -91 1000 561 
Q 319 1213 319 2328 
Q 319 3447 1000 4098 
Q 1681 4750 2847 4750 
Q 3238 4750 3597 4662 
Q 3956 4575 4288 4403 
L 4288 3438 
Q 3953 3666 3628 3772 
Q 3303 3878 2944 3878 
Q 2300 3878 1931 3465 
Q 1563 3053 1563 2328 
Q 1563 1606 1931 1193 
Q 2300 781 2944 781 
Q 3303 781 3628 887 
Q 3953 994 4288 1222 
L 4288 256 
z
" transform="scale(0.015625)"/>
     <path id="DejaVuSans-Bold-3e" d="M 678 3041 
L 678 3822 
L 4684 2375 
L 4684 1638 
L 678 191 
L 678 972 
L 3694 2003 
L 678 3041 
z
" transform="scale(0.015625)"/>
    </defs>
    <use xlink:href="#DejaVuSans-Bold-28"/>
    <use xlink:href="#DejaVuSans-Bold-46" transform="translate(45.703125 0)"/>
    <use xlink:href="#DejaVuSans-Bold-44" transform="translate(114.013672 0)"/>
    <use xlink:href="#DejaVuSans-Bold-52" transform="translate(197.021484 0)"/>
    <use xlink:href="#DejaVuSans-Bold-20" transform="translate(274.023438 0)"/>
    <use xlink:href="#DejaVuSans-Bold-3c" transform="translate(308.837891 0)"/>
    <use xlink:href="#DejaVuSans-Bold-3d" transform="translate(392.626953 0)"/>
    <use xlink:href="#DejaVuSans-Bold-20" transform="translate(476.416016 0)"/>
    <use xlink:href="#DejaVuSans-Bold-30" transform="translate(511.230469 0)"/>
    <use xlink:href="#DejaVuSans-Bold-2e" transform="translate(580.810547 0)"/>
    <use xlink:href="#DejaVuSans-Bold-30" transform="translate(618.798828 0)"/>
    <use xlink:href="#DejaVuSans-Bold-35" transform="translate(688.378906 0)"/>
    <use xlink:href="#DejaVuSans-Bold-2c" transform="translate(757.958984 0)"/>
    <use xlink:href="#DejaVuSans-Bold-20" transform="translate(795.947266 0)"/>
    <use xlink:href="#DejaVuSans-Bold-7c" transform="translate(830.761719 0)"/>
    <use xlink:href="#DejaVuSans-Bold-6c" transform="translate(867.285156 0)"/>
    <use xlink:href="#DejaVuSans-Bold-6f" transform="translate(901.5625 0)"/>
    <use xlink:href="#DejaVuSans-Bold-67" transform="translate(970.263672 0)"/>
    <use xlink:href="#DejaVuSans-Bold-46" transform="translate(1041.845703 0)"/>
    <use xlink:href="#DejaVuSans-Bold-43" transform="translate(1110.15625 0)"/>
    <use xlink:href="#DejaVuSans-Bold-7c" transform="translate(1183.544922 0)"/>
    <use xlink:href="#DejaVuSans-Bold-20" transform="translate(1220.068359 0)"/>
    <use xlink:href="#DejaVuSans-Bold-3e" transform="translate(1254.882812 0)"/>
    <use xlink:href="#DejaVuSans-Bold-3d" transform="translate(1338.671875 0)"/>
    <use xlink:href="#DejaVuSans-Bold-20" transform="translate(1422.460938 0)"/>
    <use xlink:href="#DejaVuSans-Bold-30" transform="translate(1457.275391 0)"/>
    <use xlink:href="#DejaVuSans-Bold-2e" transform="translate(1526.855469 0)"/>
    <use xlink:href="#DejaVuSans-Bold-35" transform="translate(1564.84375 0)"/>
    <use xlink:href="#DejaVuSans-Bold-29" transform="translate(1634.423828 0)"/>
   </g>
  </g>
 </g>
 <defs>
  <clipPath id="p26b5f29562">
   <rect x="7.2" y="83.856" width="361.837727" height="348.864"/>
  </clipPath>
  <clipPath id="p49a84f9919">
   <rect x="495.675212" y="83.856" width="377.047039" height="348.864"/>
  </clipPath>
 </defs>
</svg>
